# xmcd CD database file
#
# Track frame offsets:
#	150
#	8940
#	20499
#	37152
#	44618
#	51221
#	55617
#	69141
#	78851
#	93555
#	104526
#	124653
#	133698
#	141294
#	151416
#	169260
#	180504
#	192276
#
# Disc length: 2726 seconds
#
# Revision: 0
# Processed by: cddbd v1.5.1PL0 Copyright (c) Steve Scherf et al.
# Submitted via: CDex 1.51
#
DISCID=f50aa412
DTITLE=Gérard Douvizy - Vers le bleu
DYEAR=1900
DGENRE=Jazz
TTITLE0=Outre mer et ciel
TTITLE1=Au commencement
TTITLE2=Rouge sur le bleu marine
TTITLE3=Morning waltz
TTITLE4=Après la valse du matin
TTITLE5=Réjouissances
TTITLE6=Bells
TTITLE7=31 décembre
TTITLE8=Looking at Paule
TTITLE9=Bleu et vague
TTITLE10=Song for Stan
TTITLE11=La complainte de Léon
TTITLE12=Notes "étrangères"
TTITLE13=Chambre n°5
TTITLE14=Sous la pluie tôt le matin
TTITLE15=When Max switched off the light
TTITLE16=Presqu'à  la fin
TTITLE17=A bientôt
EXTD=
EXTT0=
EXTT1=
EXTT2=
EXTT3=
EXTT4=
EXTT5=
EXTT6=
EXTT7=
EXTT8=
EXTT9=
EXTT10=
EXTT11=
EXTT12=
EXTT13=
EXTT14=
EXTT15=
EXTT16=
EXTT17=
PLAYORDER=
